<?xml version="1.0" encoding="UTF-8"?>
<svg id="Capa_1" data-name="Capa 1" xmlns="http://www.w3.org/2000/svg" viewBox="0 0 841.89 595.28">
  <defs>
    <style>
      .cls-1 {
        fill: #000;
        stroke-width: 0px;
      }
    </style>
  </defs>
  <g>
    <path class="cls-1" d="M206.45,341.26h-17.1l-3.55,13.88h-15.17l20.01-75.51h14.52l20.01,75.51h-15.06l-3.66-13.88ZM202.9,327.27l-4.95-19.25-4.95,19.15,9.9.11Z"/>
    <path class="cls-1" d="M361.78,368.37s-12.91,14.09-17.1,15.17c-3.33.86-6.78,1.29-10.22,1.29-40.98,0-81.75-58.95-81.75-58.95l-7.1-.11v29.36h-14.63v-75.4h31.52c12.69,0,25.82,10.43,25.82,23.13s-7.85,19.25-17.21,21.84c0,0,34.42,45.61,60.88,45.61,2.58,0,5.16-.43,7.53-1.4,2.26-.86,11.94-10.86,11.94-10.86l10.33,10.33ZM272.28,302.75c0-4.62-3.76-8.39-8.39-8.39h-18.29v16.78l18.29.11c4.63,0,8.39-3.76,8.39-8.5Z"/>
    <path class="cls-1" d="M355.64,311.03v23.34s-1.83,23.13-24.31,23.13-35.28-15.38-35.28-40.12c0-22.48,16.14-40.45,42.27-39.59,4.84.11,16.57,10,16.57,10l-9.25,11.83s-7.42-6.67-10.97-6.67c-10.65,0-22.59,6.67-22.59,24.74,0,15.81,5.49,24.63,17.64,24.63,13.98,0,11.29-17.32,11.29-17.32h-15.17v-14.09l29.8.11Z"/>
    <path class="cls-1" d="M379.2,293.82v18.72l27.21.11v13.88h-27.21v14.74h39.91v14.09h-54.54v-75.4h54.54v13.98l-39.91-.11Z"/>
    <path class="cls-1" d="M480.84,355.35h-13.88l-25.6-45.07v45.07h-14.63v-75.4h14.63l24.85,45.07.11-45.07h14.52v75.4Z"/>
    <path class="cls-1" d="M540.54,295.22h-19.79l-.11,60.13h-14.63l.11-60.24h-19.69v-15.17h54.11v15.28Z"/>
    <path class="cls-1" d="M616.59,316.09c0,21.84-11.72,41.74-36.9,41.74s-37-17.43-37-40.55,14.09-39.8,37-39.8,36.9,18.18,36.9,38.62ZM600.56,317.59c0-12.91-5.38-24.2-20.87-24.2s-20.98,12.26-20.98,24.31,5.16,24.1,20.98,24.1,20.87-15.81,20.87-24.2Z"/>
    <path class="cls-1" d="M621.86,303.29c0-16.13,16.89-25.71,38.72-25.71,4.3,0,17.32,10.11,17.32,10.11l-8.82,14.31s-9.47-8.5-13.34-8.5c-9.25,0-17.86,3.55-17.86,10.54,0,9.9,41.63-.86,41.63,31.52,0,13.45-11.4,22.16-37.11,22.16-8.61,0-19.9-11.29-19.9-11.29l8.5-14.09s10.43,9.47,14.74,9.47c12.05,0,17.64-.97,17.64-6.56,0-17.53-41.52-4.52-41.52-31.95Z"/>
  </g>
  <g>
    <path class="cls-1" d="M269.84,218.6c0-11.29,11.82-18,27.11-18,3.01,0,12.12,7.08,12.12,7.08l-6.17,10.01s-6.63-5.95-9.34-5.95c-6.48,0-12.5,2.48-12.5,7.38,0,6.93,29.14-.6,29.14,22.06,0,9.41-7.98,15.51-25.98,15.51-6.02,0-13.93-7.91-13.93-7.91l5.95-9.86s7.3,6.63,10.32,6.63c8.43,0,12.35-.68,12.35-4.59,0-12.27-29.06-3.16-29.06-22.36Z"/>
    <path class="cls-1" d="M337.23,245.18h-11.97l-2.48,9.71h-10.62l14-52.86h10.16l14,52.86h-10.54l-2.56-9.71ZM334.74,235.39l-3.46-13.48-3.46,13.4,6.93.08Z"/>
    <path class="cls-1" d="M394.53,238.1c0,11.44-9.26,16.87-18.22,16.87l-21.91.07v-52.86h18.82c7.91,0,15.81,4.67,15.81,14.91,0,3.31-.6,5.95-1.58,7.98,4.14,3.09,7.08,7.83,7.08,13.03ZM373.22,211.97h-8.58v9.94h8.58c2.26-.08,4.07-1.66,4.07-5.2,0-2.33-1.81-4.74-4.07-4.74ZM382.33,239.08c0-3.39-2.64-7.15-5.87-7.15h-11.82v13.25h11.14c4.07,0,6.55-2.71,6.55-6.1Z"/>
    <path class="cls-1" d="M449.34,227.56c0,15.29-8.21,29.21-25.82,29.21s-25.9-12.2-25.9-28.39,9.86-27.86,25.9-27.86,25.82,12.72,25.82,27.03ZM438.12,228.61c0-9.04-3.76-16.94-14.61-16.94s-14.68,8.58-14.68,17.02,3.61,16.87,14.68,16.87,14.61-11.07,14.61-16.94Z"/>
    <path class="cls-1" d="M483.07,235.01l11.07,13.18-7.68,7-16.26-19.35h-4.97v19.2h-10.24v-52.86l22.06.07c8.88,0,18.07,7.53,18.07,16.79s-5.5,14.08-12.05,15.96ZM465.23,211.97v13.18h12.8c3.24,0,5.87-2.71,5.87-6.1s-2.64-7.08-5.87-7.08h-12.8Z"/>
    <path class="cls-1" d="M510.85,211.97v13.1l19.05.07v9.71h-19.05v10.32h27.93v9.86h-38.17v-52.78h38.17v9.79l-27.93-.08Z"/>
    <path class="cls-1" d="M542.18,218.6c0-11.29,11.82-18,27.11-18,3.01,0,12.12,7.08,12.12,7.08l-6.17,10.01s-6.63-5.95-9.34-5.95c-6.48,0-12.5,2.48-12.5,7.38,0,6.93,29.14-.6,29.14,22.06,0,9.41-7.98,15.51-25.98,15.51-6.02,0-13.93-7.91-13.93-7.91l5.95-9.86s7.3,6.63,10.32,6.63c8.43,0,12.35-.68,12.35-4.59,0-12.27-29.06-3.16-29.06-22.36Z"/>
  </g>
</svg>